# xmcd
#
# Track frame offsets: 
#        150
#        4775
#        17433
#        30198
#        45555
#        58605
#        74774
#        86800
#        101574
#        115860
#        130109
#        143601
#        154778
#
# Disc length: 2268 seconds
#
# Revision: 0
# Processed by: cddbd v1.5.2PL0 Copyright (c) Steve Scherf et al.
# Submitted via: ExactAudioCopy v1.0b1
#
DISCID=9f08da0d
DTITLE=Ernest Tubb and his Texas Troubadours - On Tour
DYEAR=1900
DGENRE=Country
TTITLE0=Introduction: Johnny Johnson, Ernest Tubb
TTITLE1=Women Make A Fool Out Of Me
TTITLE2=Go On Home
TTITLE3=Steel Guitar Rag
TTITLE4=Old Love, New Tears
TTITLE5=Try Me One More Time
TTITLE6=Lover's Waltz
TTITLE7=Drivin' Nails In My Coffin
TTITLE8=Out Of My Mind
TTITLE9=Redskin Rag
TTITLE10=Watching My Past Go By
TTITLE11=Bandera Waltz
TTITLE12=In And Out (Of Every Heart In Town)
EXTD=
EXTT0=
EXTT1=
EXTT2=
EXTT3=
EXTT4=
EXTT5=
EXTT6=
EXTT7=
EXTT8=
EXTT9=
EXTT10=
EXTT11=
EXTT12=
PLAYORDER=
